<?xml version="1.0" encoding="utf-8"?>
<!-- Generator: Adobe Illustrator 28.1.0, SVG Export Plug-In . SVG Version: 6.00 Build 0)  -->
<svg version="1.1" id="Calque_1" xmlns="http://www.w3.org/2000/svg" xmlns:xlink="http://www.w3.org/1999/xlink" x="0px" y="0px"
	 viewBox="0 0 700 700" style="enable-background:new 0 0 700 700;" xml:space="preserve">
<style type="text/css">
	.st0{fill:#65435C;}
</style>
<g>
	<path class="st0" d="M421.1,412c-6.6,0-13.6,0-20.8,0c-0.3-2.2-0.4-4.1-0.8-5.9c-3.4-17.1-13.4-28.4-29.6-34.4
		c-4.2-1.5-4.2-1.4-3.5-6.5c18.2,0,36.5,0,55.3,0c0-5,0-9.6,0-14.1c-0.1-21.8-0.1-43.6-0.2-65.5c0-6.3,1.7-8,8-8
		c15.4,0,30.8,0,46.2,0c6,0,7.9,1.9,8,7.9c0,43.1,0,86.3,0,129.4c0,37.5,0,75.1,0,112.6c0,6.5-1.7,8.1-8.2,8.1
		c-15.4,0-30.8,0-46.2,0c-5.8,0-7.8-1.9-7.8-7.7c0-38.4,0.1-76.9,0.1-115.3C421.6,412.5,421.5,412.5,421.1,412z"/>
	<path class="st0" d="M259.2,365.1c18.6,0,36.7,0,55.1,0c0,2,0,3.6,0,5.4c-20.7,5.9-31.5,20.1-33.8,41.6c-7.1,0-14,0-21.3,0
		c0,1.6,0,2.9,0,4.1c0,37.2,0,74.5,0,111.7c0,5.6-1.9,7.6-7.5,7.6c-15.4,0-30.8,0-46.2,0.1c-6.1,0-8.1-2-8.1-8.1
		c0-51.3,0-102.7,0-154c0-29.3,0-58.7,0-88c0-6.3,1.5-7.9,7.7-7.9c15.7,0,31.4,0,47.1,0c5.1,0,7,1.9,7,7.1c0,25.3,0,50.6,0,76
		C259.2,362,259.2,363.3,259.2,365.1z"/>
	<path class="st0" d="M393.5,214.6c-1.6,2.8-3.2,5.5-5,8.7c34.8,19.3,72.2,26.5,111.7,24.6c-21.8,13.6-45.2,18.8-70.4,13.4
		c-27.7-5.9-48.7-21.7-64.3-44.9c0.5-0.6,0.6-0.9,0.7-0.9c8.3-2.8,12.1-7.9,12.4-17.1c0.1-3.7-0.1-7.4,0.1-11.1
		c0.4-11.1,7.9-18.3,19-18.8c6.6-0.3,12.7,1.5,18.7,3.8c13.4,5,26.6,10.5,40.2,14.9c21.3,7,43.2,10.3,65.7,8.3
		c4.3-0.4,8.5-1,12.8-1.5c4.8-0.6,7.1,1.6,5.7,6.2c-5.9,18.6-17.9,32.8-38.1,35.5c-20.2,2.7-40.1,0.3-59.9-3.9
		c-16.1-3.4-31.5-8.9-46.4-16C395.3,215.3,394.4,215,393.5,214.6z"/>
	<path class="st0" d="M291.9,222.7c-1.8-2.9-3.4-5.4-4.8-7.8c-8.3,3.3-16.4,6.9-24.7,9.8c-22.4,8-45.6,12.3-69.4,12
		c-9.4-0.1-18.8-0.7-27.5-4.9c-13.3-6.4-20.4-17.9-24.9-31.2c-1.7-5.2,0.5-7.6,5.6-6.7c30.6,5.5,60,0.5,88.7-10.1
		c10.8-4,21.5-8.3,32.2-12.4c6.3-2.4,12.6-3.8,19.4-2.4c9.9,2,16.1,9.5,16,19.5c0,3.7-0.2,7.4,0,11.1c0.4,8.2,4,12.9,11.6,15.6
		c0.4,0.1,0.7,0.4,1,0.6c-22.4,39.1-81.1,65.7-135.1,31.7c20.1,1,39.3,0.3,58.2-4C256.8,239.3,275.2,233.4,291.9,222.7z"/>
	<path class="st0" d="M354.4,368.7c-9.4,0-18.5,0-27.9,0c0-52,0-103.8,0-155.8c9.2,3,18.4,3.5,27.9,0.1
		C354.4,265,354.4,316.7,354.4,368.7z"/>
	<path class="st0" d="M319.1,538.9c-11.1-7.1-14.8-22.9-8.6-34.8c4.2-8,11-12.6,19.3-15c6.3-1.8,12.9-2.8,19.3-4.2
		c2.3-0.5,4.7-1.1,6.9-2.1c4.5-2,6.7-5.6,6.5-10.5c-0.1-4.6-2.5-8.1-6.7-9.4c-5.3-1.7-10.8-2.7-16.3-3.8c-2.7-0.5-5.6-0.6-8.4-0.5
		c-4,0.1-7.5,1.4-9.5,5.2c-2,3.9-0.9,7.4,1.7,10.6c0.9,1.2,1.9,2.3,2.7,3.3c-6.3,3.4-12.6,6.9-19.3,10.6
		c-7.2-7.2-10.9-16.5-9.5-27.6c0.8-6.1,3.1-11.6,7.4-16c0.8-0.9,2.4-1.6,3.5-1.5c16.1,1.9,32.2,3.4,48.2,6.1c5.8,1,11.6,4,16.6,7.3
		c14,9.5,14.1,29.9,0.6,40.3c-6.5,5-14.1,6.8-21.9,8.4c-4.2,0.9-8.4,1.7-12.5,3.1c-12.4,4.1-19.3,13.4-19.9,26.4
		C319.2,536,319.2,537.3,319.1,538.9z"/>
	<path class="st0" d="M323.6,422.6c-9.2,2.5-17,5.7-23.4,12.1c-5.2-5.9-7.7-12.8-7.7-20.5c-0.1-19,13.5-33.3,32.5-33.8
		c11.1-0.3,22.2-0.4,33.3,0.2c13.9,0.7,26.1,11.7,29.6,25.5c3.4,13.3-2.4,28.6-13.9,36.1c-0.7,0.4-1.9,0.6-2.6,0.3
		c-11.2-4.8-23.1-6.3-35.1-7.4c-3.5-0.3-7.1-0.6-10.7-1.6c3.9-1,7.8-2.1,11.7-3.1c4.4-1.1,8.8-1.9,13.1-3.2c2.7-0.8,5.5-2,7.9-3.6
		c4.1-2.7,5.9-7.6,4.8-12c-1-4-4.5-7.2-9.5-7.4c-8.7-0.3-17.4-0.2-26.1,0c-4.4,0.1-7.8,2.4-9.4,6.8c-1.6,4.4,0.8,7.5,3.7,10.3
		C322,421.7,322.5,421.9,323.6,422.6z"/>
	<path class="st0" d="M314.8,338.4c0,5.5,0,10.7,0,16c-0.5,0.1-1,0.3-1.5,0.3c-7.7,0-15.4,0.2-23.1-0.1c-13.1-0.5-24-10.5-26.1-23.6
		c-2.2-13.5,4.9-26.8,16.9-31.2c8.8-3.2,17-2.2,23.9,4.4c3.5,3.3,6.8,6.8,10.1,10.3c1.3,1.4,2.2,3.1,1.2,5.2c-1,2.1-2.8,2-4.6,2
		c-4.9,0-9.8,0-14.7,0c-4,0-6.7,1.9-7.7,5.4c-1.1,3.6,0.3,7.9,3.6,9.6c1.9,1,4.1,1.6,6.2,1.7C304.2,338.5,309.3,338.4,314.8,338.4z"
		/>
	<path class="st0" d="M366.2,354.7c0-5.6,0-10.7,0-16.3c3.9,0,7.8,0.1,11.6,0c2.6-0.1,5.2,0,7.7-0.6c4.4-1,6.9-5.1,6.3-9.5
		c-0.6-4.3-3.4-6.6-8.2-6.6c-5.1-0.1-10.2,0-15.3,0c-3.4,0-4.8-2.2-3.4-5.3c4.6-10.4,16.4-18.4,26.6-18.1c10.3,0.3,20.4,8,24.1,18.4
		c3.8,10.7,0.6,23.1-8.1,30.9c-5.1,4.6-11.2,7-18,7.2C381.8,354.8,374.1,354.7,366.2,354.7z"/>
	<path class="st0" d="M340.1,155.7c14.2,0.2,24.9,10.7,24.7,24.3c-0.2,13.2-10.9,23.7-24.2,23.6c-14-0.1-24.5-10.5-24.4-24.2
		C316.4,165.9,326.8,155.5,340.1,155.7z"/>
	<path class="st0" d="M340,565.1c-3.1-9.3-7.7-18.2-8.6-28.2c-0.6-6.8,2.4-12,8.4-14.9c4.3-2,9-3.1,13.5-4.7c0.3,0.3,0.6,0.5,1,0.8
		c-4.3,15.7-8.7,31.4-13,47.1C340.8,565.2,340.4,565.2,340,565.1z"/>
	<path class="st0" d="M366.1,236c10.8,12.8,23.4,21.9,37.7,29.1c-1.7-0.2-3.4-0.3-5-0.6c-1.7-0.2-3.4-0.3-5-0.8
		c-8.4-2.5-16.8-5.1-25.2-7.6c-1.8-0.5-2.4-1.6-2.4-3.5C366.2,247.3,366.1,242.1,366.1,236z"/>
	<path class="st0" d="M277.3,264.8c14.3-7,26.4-16.7,37.2-29.5c0,6.8,0.1,12.6-0.1,18.4c0,0.6-0.9,1.5-1.6,1.9
		C306.6,259.1,284.8,264.9,277.3,264.8z"/>
	<path class="st0" d="M348.6,416.3c-4.4,1-8.8,2.3-13.2,2.8c-1.2,0.1-2.7-2-4.7-3.6c6.6,0,12.2,0,17.8,0
		C348.5,415.7,348.6,416,348.6,416.3z"/>
	<path class="st0" d="M349.4,472.8c-3.5,0.8-7,2-10.5,2.1c-1.4,0-2.8-2.5-4.9-4.4c5.7,0.3,10.5,0.3,15.3,1
		C349.3,471.9,349.4,472.4,349.4,472.8z"/>
</g>
</svg>
